<svg width="50" height="56" viewBox="0 0 50 56" fill="none" xmlns="http://www.w3.org/2000/svg">
<g clip-path="url(#clip0_5693_15868)">
<path d="M21.1168 37.0337C21.5533 37.0337 21.8235 37.0337 22.1562 37.0548C23.6046 37.1369 24.7076 38.1924 24.7076 39.8346V40.5087C24.7076 41.284 24.822 41.6042 25.5976 41.6042C26.3732 41.6042 26.4833 41.2882 26.4833 40.5087C26.4833 39.508 26.4833 38.5832 26.4833 37.513C26.4833 37.3128 26.4833 37.5056 26.4833 37.2707C26.4833 37.0937 26.5596 37.0347 26.7186 37.0347H28.133C28.3195 37.0347 28.3841 37.0969 28.3841 37.2749V40.8627C28.3733 41.5663 28.0876 42.2382 27.5876 42.7363C27.0876 43.2343 26.4123 43.5197 25.7046 43.5319C24.9629 43.5319 24.7224 43.2685 24.3028 42.9662C24.1439 42.8514 24.0369 42.8345 23.8663 42.9662C23.3079 43.3876 22.4825 43.5456 21.7928 43.5456C18.5178 43.5456 15.2406 43.5614 11.9646 43.5456C10.2778 43.5371 8.99788 42.1456 8.99788 40.3613C8.99788 38.8054 9.72366 37.4656 11.2663 37.1127C11.4879 37.0627 11.7141 37.0362 11.9413 37.0337C12.9605 37.0263 13.9798 37.0337 14.9991 37.0253C15.2205 37.0253 15.2926 37.0885 15.2873 37.3107C15.2724 37.8216 15.2724 38.1102 15.2873 38.6222C15.2936 38.8465 15.2142 38.9055 14.9959 38.9034C14.0423 38.8929 13.0962 38.8971 12.1458 38.9034C11.4115 38.9034 10.9103 39.5891 10.905 40.3096C10.8997 41.0301 11.4231 41.6864 12.1373 41.6864C15.2947 41.6906 18.4493 41.6906 21.601 41.6864C22.3003 41.6864 22.8385 41.0112 22.8438 40.3096C22.8491 39.6081 22.3268 38.8992 21.6159 38.8981H17.0599C17.0599 38.8981 16.5301 38.8981 16.8925 38.5442L21.2821 33.4175C21.2821 33.4175 21.5576 33.053 21.975 33.053H23.6978C23.6978 33.053 24.1873 33.0183 23.7953 33.408L21.0458 36.7493C21.0458 36.7493 20.7227 37.0337 21.1168 37.0337Z" fill="#40B8B5"/>
<path d="M38.561 29.2822C39.2825 29.2822 40.004 29.2885 40.7256 29.2822C40.9375 29.2822 41.0032 29.3454 40.9979 29.5519C40.9862 30.0333 40.9809 30.3482 40.9979 30.8286C41.0085 31.0835 40.9386 31.1667 40.6705 31.1646C39.2761 31.1509 37.8818 31.154 36.4875 31.1646C35.7363 31.1646 35.0868 31.7134 35.0868 32.5339C35.0868 33.2313 35.4269 33.9402 36.0912 34.1435C36.2247 34.1797 36.3629 34.1957 36.5012 34.1909C36.9854 34.1909 37.4919 34.1962 37.9772 34.1909C38.1149 34.1909 38.2304 34.1909 38.2304 34.3847C38.2304 34.9377 38.2304 35.2674 38.2304 35.8689C38.2304 36.0027 38.1806 36.0669 38.0397 36.0648C37.404 36.0553 36.7449 36.1069 36.1219 36.0279C34.4404 35.8173 33.312 34.7471 33.1732 33.0448C33.0972 32.23 33.3147 31.4148 33.7871 30.7445C34.2594 30.0743 34.9558 29.5927 35.7521 29.3855C36.0008 29.3202 36.2568 29.2873 36.5139 29.2875L38.561 29.2822Z" fill="#40B8B5"/>
<path d="M40.9693 38.2958C40.9693 39.9443 40.9693 41.5918 40.9746 43.2403C40.9746 43.4805 40.9163 43.5384 40.662 43.5384H39.4202C39.1765 43.5384 39.1024 43.4973 39.1024 43.2477C39.114 41.7277 39.1024 40.2066 39.1024 38.6856C39.1024 36.9096 39.1024 35.1336 39.1024 33.3587C39.1024 33.1196 39.1553 33.0427 39.4096 33.0427H40.6239C40.8887 33.0427 40.9746 33.0996 40.9724 33.3787C40.9629 35.0188 40.9693 36.6558 40.9693 38.2958Z" fill="#40B8B5"/>
<path d="M25.4355 34.0907C25.4353 34.2978 25.4969 34.5004 25.6125 34.6728C25.7282 34.8451 25.8926 34.9795 26.0851 35.0589C26.2776 35.1382 26.4895 35.1591 26.6939 35.1187C26.8982 35.0783 27.086 34.9786 27.2334 34.8321C27.3807 34.6856 27.481 34.4989 27.5216 34.2957C27.5622 34.0925 27.5413 33.8819 27.4614 33.6905C27.3816 33.4992 27.2465 33.3357 27.0731 33.2207C26.8997 33.1057 26.696 33.0445 26.4876 33.0447C26.2086 33.045 25.9412 33.1552 25.7439 33.3513C25.5467 33.5474 25.4358 33.8133 25.4355 34.0907Z" fill="#40B8B5"/>
<path d="M31.0287 38.2925C31.0287 39.9389 31.0234 41.5864 31.034 43.2338C31.034 43.474 30.9758 43.5319 30.7162 43.5319H29.4786C29.236 43.5319 29.1608 43.4908 29.1608 43.2412C29.1724 41.7212 29.1671 40.2012 29.1671 38.6822C29.1671 36.9073 29.1671 35.1324 29.1671 33.3575C29.1671 33.1195 29.2191 33.0415 29.4744 33.0415H30.6876C30.9524 33.0415 31.0393 33.0984 31.0362 33.3765C31.0213 35.0176 31.0287 36.6556 31.0287 38.2925Z" fill="#40B8B5"/>
<path fill-rule="evenodd" clip-rule="evenodd" d="M37.4122 11H37.4069H15.5C15.0762 11 14.6905 11.4666 14.6905 11.8006L14.6971 16.4086C15.0033 16.3443 15.3212 16.2706 15.6401 16.1842C17.436 15.6575 19.2425 15.5985 21.0882 15.9124C21.9667 16.0731 22.8306 16.3045 23.6714 16.6045L23.7296 16.6403L26.4622 17.6663L26.9919 17.4651L29.1958 16.6392L29.2339 16.615C30.0806 16.3117 30.9509 16.0781 31.8361 15.9166C33.6839 15.6006 35.4894 15.6565 37.2842 16.1884C37.6021 16.2737 37.92 16.3475 38.2283 16.4117L38.2217 11.8037C38.2217 11.4666 37.8381 11 37.4122 11Z" fill="#40B8B5"/>
<path d="M18.6407 32.0209L22.6987 27.7253H37.4802C37.4802 27.7253 38.2272 27.7253 38.2272 26.9037V17.5425C38.061 17.4403 37.8875 17.3506 37.708 17.2739C36.9229 16.922 35.4629 16.605 34.397 16.605C32.4527 16.605 31.5151 16.7904 29.7531 17.3887C29.1343 17.5994 27.5545 18.1113 26.8923 18.5052C26.8722 18.5189 26.5384 18.7159 26.478 18.7507L26.4664 18.757L26.4558 18.7507C26.3943 18.7149 26.0616 18.5189 26.0415 18.5052C25.374 18.1113 23.7953 17.5994 23.1755 17.3887C21.4145 16.7904 20.4758 16.605 18.5316 16.605C17.4667 16.605 16.0056 16.921 15.2205 17.2739C15.0411 17.3508 14.8676 17.4406 14.7013 17.5425V26.9047C14.7013 27.7264 15.4483 27.7264 15.4483 27.7264H18.2677V31.845C18.2677 31.845 18.2243 32.4359 18.6407 32.0209ZM32.0014 24.5863C31.9055 24.5865 31.8097 24.5819 31.7143 24.5726H21.192C21.0963 24.582 21.0001 24.5865 20.9038 24.5863C20.2487 24.5863 19.6123 24.3693 19.0951 23.9695C18.578 23.5697 18.2095 23.01 18.0481 22.3788C17.8867 21.7476 17.9414 21.0809 18.2037 20.4841C18.4659 19.8873 18.9208 19.3944 19.4963 19.0833C20.0719 18.7722 20.7353 18.6607 21.3817 18.7663C22.0281 18.8719 22.6207 19.1887 23.0658 19.6666C23.5109 20.1445 23.7831 20.7562 23.8394 21.4051C23.8958 22.0539 23.733 22.703 23.3768 23.2496H29.5295C29.1736 22.7031 29.011 22.0543 29.0674 21.4056C29.1238 20.757 29.396 20.1456 29.8411 19.668C30.2861 19.1903 30.8785 18.8738 31.5247 18.7683C32.1709 18.6628 32.8341 18.7744 33.4094 19.0855C33.9846 19.3966 34.4392 19.8894 34.7013 20.4861C34.9634 21.0827 35.018 21.7492 34.8565 22.3801C34.695 23.011 34.3266 23.5705 33.8095 23.97C33.2925 24.3696 32.6563 24.5864 32.0014 24.5863Z" fill="#40B8B5"/>
<path d="M33.1212 22.7734C33.7398 22.1585 33.7398 21.1614 33.1212 20.5464C32.5026 19.9314 31.4996 19.9314 30.881 20.5464C30.2625 21.1614 30.2625 22.1585 30.881 22.7734C31.4996 23.3884 32.5026 23.3884 33.1212 22.7734Z" fill="#40B8B5"/>
<path d="M21.2666 23.1928C22.118 22.9931 22.6453 22.1449 22.4444 21.2984C22.2434 20.452 21.3903 19.9277 20.5389 20.1275C19.6874 20.3273 19.1601 21.1755 19.3611 22.0219C19.562 22.8684 20.4151 23.3926 21.2666 23.1928Z" fill="#40B8B5"/>
<path d="M37.2217 37.8945C36.5649 37.3214 35.7179 37.0103 34.8441 37.0213C32.9984 37.0213 31.496 38.4854 31.496 40.2867C31.496 41.8804 32.6509 43.3625 34.7424 43.3625C35.4555 43.3625 36.0499 43.1129 36.3592 42.8295C36.3592 43.6595 35.2997 44.1294 34.9575 44.1294H32.0194C31.9437 44.1208 31.867 44.1317 31.7967 44.1611C31.7264 44.1904 31.6648 44.2371 31.6178 44.2968C31.5268 44.4307 31.4825 44.5906 31.4918 44.7519V45.504C31.4867 45.576 31.4979 45.6482 31.5247 45.7153C31.5515 45.7824 31.5931 45.8427 31.6465 45.8916C31.7389 45.9632 31.8536 46.0004 31.9707 45.997H32.0247H34.9533C36.5839 45.997 38.2378 45.1395 38.2378 43.5015V40.1982C38.2426 39.7645 38.1545 39.3348 37.9793 38.9376C37.8041 38.5403 37.5459 38.1848 37.2217 37.8945ZM34.7424 41.3864C34.5295 41.3827 34.3225 41.3165 34.1473 41.1962C33.9721 41.0759 33.8365 40.9068 33.7576 40.7102C33.6788 40.5135 33.6601 40.2981 33.7039 40.091C33.7477 39.8838 33.8521 39.6942 34.004 39.5458C34.1559 39.3974 34.3484 39.297 34.5576 39.257C34.7667 39.2171 34.983 39.2394 35.1793 39.3213C35.3757 39.4031 35.5434 39.5408 35.6613 39.7171C35.7792 39.8933 35.8422 40.1003 35.8422 40.312C35.8408 40.4547 35.8111 40.5958 35.7548 40.7271C35.6985 40.8584 35.6166 40.9774 35.514 41.0772C35.4113 41.177 35.2898 41.2557 35.1565 41.3088C35.0232 41.3618 34.8807 41.3882 34.7371 41.3864H34.7424Z" fill="#40B8B5"/>
</g>
<defs>
<clipPath id="clip0_5693_15868">
<rect width="32" height="35" fill="white" transform="translate(9 11)"/>
</clipPath>
</defs>
</svg>
