<?xml version="1.0" encoding="UTF-8"?> <svg xmlns="http://www.w3.org/2000/svg" viewBox="0 0 440.64 88.68"><defs><style>.cls-1{fill:#ff8a11;fill-rule:evenodd;}</style></defs><g id="Layer_2" data-name="Layer 2"><g id="Layer_1-2" data-name="Layer 1"><g id="Layer_1-3" data-name="Layer_1"><path class="cls-1" d="M440.38,33.21c-.26-.1-.59-.19-.91-.29a119.13,119.13,0,0,0-12.91-2.8c-4.1-.76-8.91-.54-13.09-.47-2.11.21-4.2.45-6.28.69-11,1.28-24.45,7.07-30.38,8.54-.06,0-10.62-3.88-12.58-4.52-3.46-1.06-7.56-2-11.15-2.79a70.53,70.53,0,0,0-13.14-1.8c-11.86.06-14.93,1-25.79,3.16-1.1.22-.85.53-.85,6.38,0,1.63,0,10.8-.06,19.56,0,7.46.08,14.92.13,22.38,0,3.81.64,7.37,5.63,7.35h79.3c1.93,0,25.95.18,35.27,0,2.67-.06,6-.42,6.8-3.69l.06-27.3c0-4.5.22-21.4-.05-24.4Z"></path><path class="cls-1" d="M313.62,27.54c1.06-.05,4.41-1,5.64-1.31,14.88-3.39,30.69-1.52,45.37,3,1.87.58,11.87,4.28,12.57,4.33,1.82.13,6.19-1.76,8.21-2.34,10.76-3.05,20-7.54,35.19-6.95a77.86,77.86,0,0,1,16.65,2.39,15.56,15.56,0,0,0,3.33.58c-.63-4.61.5-18.82-.15-22.69-.29-1.71-2-3.18-3.39-4.08C436.21,0,320.72-.2,317.19.27c-.94.13-3.66,2.35-3.73,4.74-.09,3-.17,20.73.15,22.53Z"></path><path class="cls-1" d="M239.4,44.56a6.13,6.13,0,0,1,2.21,3.5,6,6,0,0,1-4.26,7,5.33,5.33,0,0,1-5.82-2.25c-4.08-6.15,3.38-11.93,7.87-8.24Zm-62.52-.3c4,0,24.66-.3,26.09.3a6.48,6.48,0,0,1,2.71,2.22,6.23,6.23,0,0,1,.28,6.11c-2.48,4.22-7.47,3.07-12.09,3.07-5.25,0-38.93.25-40.25-.16-7-2.18-5.57-11.53,1-11.53h14c2.15,0,1.64-.14,1.64-2.34,0-1.31.69-7.42-.55-7.83-.78-.25-15.15,0-16.75,0a14.87,14.87,0,0,0-8.39,3.28,19.62,19.62,0,0,0-4.05,4.84c-2.84,6.61-3,11.65,1.08,17.71,2.11,3.1,4.89,4.71,8.3,5.9,3,1,16,.58,19.38.58,4,0,31.44.25,34-.13,2.84-.43,8.06-3.33,8.19-3.34,3.76.67,4.52,3.49,10.86,2.61a10.91,10.91,0,0,0,4.6-1.8,1.91,1.91,0,0,1,2.25-.21c6.47,2.69,8.32,2.83,14.9-.47,6.49-4.33,7.75-11.25,6.13-18.43-1.07-4.76-5.92-8.9-10.53-10.07-10.84-2.76-20.48,7.48-18.17,17.64a20.16,20.16,0,0,1,.59,3.13,2.23,2.23,0,0,1-2,.87,3.92,3.92,0,0,1-3.36-1.7,28.87,28.87,0,0,0,.34-6.1,16.28,16.28,0,0,0-2.68-7.4,16.61,16.61,0,0,0-5.29-4.79c-4.13-2.31-6.71-2-11.39-2,0-1.43,8.13-10.69,9.33-12.16l4.79-5.94a1.85,1.85,0,0,0,.73-1.54c-1.2,0-11.31-.24-12,.2-.93.62-4.56,5.55-5.54,6.66C192,25.07,189.07,29.1,186,32.73l-7.4,9.11a7.87,7.87,0,0,0-1.7,2.42Z"></path><path class="cls-1" d="M105.76,49.63c2.28-2.63,6.54-2.72,8.32.27,1.55,2.62,1,5-.52,6.44a5.15,5.15,0,0,1-7.8-6.71ZM75.13,57.29a5.89,5.89,0,0,1-2.35-3c-1.08-3.08,1.43-6,3.69-6.51a5.12,5.12,0,0,1,5.61,2.17C85.43,55.38,79.33,59.86,75.13,57.29Zm20.4-4.63c0,2.06.63,3.22.68,4.47.06,1.5-3.2,1.06-4,.44,0-1.24,0-2.52,0-3.76a16,16,0,0,0-2.53-9.21A14.52,14.52,0,0,0,68.33,42c-10,8.7-3.4,25,9.37,25h3.86c1.28.28.1,1.44-1.46,2.19-3.21,1.55-7.8-.11-10.1.83-.31.78-.15,5.75-.15,6.82s-.08,1.76.41,2c1.7.9,11.47.14,14.1-1.41a18.76,18.76,0,0,0,4.17-3.24c2.93-3.12,2.93-5.94,3.77-7.11,3.59-.16,17.37.19,19.23-.08a14.9,14.9,0,0,0,11.32-8.29,14.05,14.05,0,0,0-5-17.94c-3.9-2.64-9.64-3.39-13.84-1.11-3.36,1.81-5.81,3.74-7.34,7.35a13.9,13.9,0,0,0-1.09,5.57Z"></path><path class="cls-1" d="M263.12,15.06,263,15a52.26,52.26,0,0,0-8.86,0c-.32.31-.14,32.35-.14,36.49a12.22,12.22,0,0,0,.92,4.89A12.23,12.23,0,0,0,256,58.64a16.41,16.41,0,0,0,4.52,4.54,6.84,6.84,0,0,0,2.42,1.06,13.07,13.07,0,0,0,10.44-.13l1.56-.75c.6-.29.29-.2.7-.46,2.73-1.75,1.1-1.26,3.73.4l.22.12.11.06c.28.14.3.18.63.35,3.55,1.82,9.68,2.19,12.94-.13.6-.43.72-.29,1.38-.8A15.62,15.62,0,0,0,298.92,58a16.91,16.91,0,0,0,1.64-5.29c.11-2.58.2-19.84-.12-20.2s-.64-.18-1.05-.17h-5.78c-2,0-2.19-.24-2.23,1v13.2c0,3.52.7,5.93-2.44,8.19A4.34,4.34,0,0,1,282.24,53a4.66,4.66,0,0,1-.6-3V35.84c0-1.13.26-3.28-.42-3.46s-4.94-.05-6.4-.05l-1.65,0c-.61.1-.57.5-.58,1.18l0,17.32A5.42,5.42,0,0,1,270,55.08c-2,1.47-4.89.13-6-1.78-.06-.11-.63-1.66-.63-1.67-.19-.88,0-24.55,0-27.66,0-.7.21-8.32-.17-8.91Z"></path><path class="cls-1" d="M21.25,47.48c3.42,0,3.08.15,3.08-1.07s.09-7-.18-7.69c-.68-.25-7.66,0-9.33,0A18.37,18.37,0,0,0,7,40.53a15.67,15.67,0,0,0-2.47,1.91A13,13,0,0,0,0,52.66,14.75,14.75,0,0,0,4.89,63.58c3.42,3,7.47,3.47,12.08,3.47H44.83C50,67.05,53.45,66.5,57,63A13.29,13.29,0,0,0,61.2,53V41.28c0-2.24.17-2.38-.71-2.51H59c-.91,0-6.51-.15-6.8.16-.48.5.13,12.2-.19,14.42-.26,1.78-1,3-3.18,4.29-1.27.74-5.72.39-7.64.39H16.8c-3.08,0-7.22-.53-7.67-4.39a5.57,5.57,0,0,1,2.62-5.36c2.06-1.3,7-.8,9.5-.8Z"></path><path class="cls-1" d="M121.66,34.19V29.58c0-2.49.3-2-4.45-2-8.6,0-6.31-7.19-1.52-7.25.86,0,1.74.06,2.34.06,1.94,0,16,.18,16.88-.13a50.53,50.53,0,0,0,0-8.87c-1.06-.39-17-.14-19.68-.13a13.11,13.11,0,0,0-10,4.85,17.2,17.2,0,0,0-1.91,3.18c-3.48,9.44,3.78,17.62,13.44,17.45.74,0,4.28,0,4.6-.12s.34-.79.34-2.42Z"></path><path class="cls-1" d="M126.22,24.58c-.35.91-.32,41.36,0,42.14a39.5,39.5,0,0,0,8.83,0c.37-.38.13-34.11.16-40.93a4.66,4.66,0,0,0,0-.65c0-.19-.09-.49-.29-.57L134,24.4c-1.56,0-7.06-.12-7.81.18Z"></path><path class="cls-1" d="M284.69,77a5.72,5.72,0,0,0,.88-1.78A8.88,8.88,0,0,0,286.76,77l-2.07.06Zm-1-7.47a5,5,0,0,0-2.89-.59A4.2,4.2,0,0,0,278,70.25c-2,2.14-1.67,6.75,1.44,7.79a8.44,8.44,0,0,0,2.53.31c-.2,1-1.8,2.69-.55,5.35a4.46,4.46,0,0,0,6.78,1.76,4.7,4.7,0,0,0,1.71-4.68c-.52-2.16-.74-1.55-.92-2.43a15.9,15.9,0,0,0,2.57-.25c2.81-.65,3.86-4.14,2.72-6.61a4.51,4.51,0,0,0-4.17-2.56c-2.2,0-2.94,1-4.15,2.65-.22.3-.29.46-.48.35s-.33-1.5-1.75-2.37Z"></path><path class="cls-1" d="M37.25,45.38c1.17.29,1.55,3.74,5.55,3.36a5.25,5.25,0,0,0,5-5,5.33,5.33,0,0,0-1.27-3.38,5,5,0,0,0-2.86-1.8,4.83,4.83,0,0,0-4.44,1.23c-.93.88-1.4,1.88-1.66,2-.92.29-.52-1-2.28-2.27A5.16,5.16,0,1,0,35,48c2-1.44,1.4-2.07,2.22-2.59Z"></path><path class="cls-1" d="M264.16,75.14c1,.25,1.34,3.21,4.77,2.88a4.5,4.5,0,0,0,4.25-4.28,4.59,4.59,0,0,0-1.08-2.9,4.34,4.34,0,0,0-2.46-1.54,4.14,4.14,0,0,0-3.82,1c-.8.76-1.2,1.62-1.43,1.69-.78.25-.45-.87-1.95-2a4.44,4.44,0,1,0-.18,7.27c1.75-1.23,1.2-1.77,1.9-2.22Z"></path></g></g></g></svg> 
