<svg width="65" height="56" viewBox="0 0 65 56" fill="none" xmlns="http://www.w3.org/2000/svg">
<g clip-path="url(#clip0_5693_15808)">
<path d="M45.9058 41.101C45.8922 41.0389 45.8588 40.9827 45.8104 40.9403C45.7651 40.9082 45.7101 40.8918 45.6541 40.8937C45.544 40.9072 45.4413 40.9551 45.3613 41.0303C45.2593 41.1075 45.1277 41.191 44.9698 41.2939C44.7908 41.4003 44.6012 41.4887 44.4039 41.5575C44.1553 41.6411 43.8935 41.6808 43.6307 41.6748C43.3258 41.6795 43.024 41.6152 42.7489 41.4868C42.4811 41.3531 42.252 41.1558 42.0827 40.913C41.8774 40.6102 41.7313 40.2728 41.6517 39.918C41.4488 38.9874 41.4455 38.0259 41.6418 37.0939C41.7206 36.7307 41.8612 36.3829 42.058 36.0652C42.2223 35.8031 42.4478 35.5828 42.716 35.4223C42.9797 35.2715 43.2807 35.1942 43.5863 35.1989C43.848 35.1931 44.1085 35.2351 44.3545 35.3226C44.5513 35.3971 44.7393 35.492 44.9155 35.6055C45.0502 35.6925 45.1794 35.7875 45.3021 35.89C45.3832 35.973 45.4914 36.0259 45.6081 36.0395C45.6699 36.0392 45.729 36.0149 45.7726 35.972C45.8194 35.9226 45.8538 35.8631 45.8729 35.7984C45.9006 35.7101 45.9177 35.6189 45.9239 35.5268C45.9321 35.4207 45.9371 35.2905 45.9371 35.141C45.9371 34.9915 45.9371 34.8806 45.9272 34.7858C45.9173 34.691 45.9091 34.6026 45.8959 34.5302C45.8845 34.4641 45.8641 34.3998 45.8351 34.339C45.7991 34.2715 45.7537 34.2093 45.7002 34.1541C45.6033 34.0539 45.4925 33.9673 45.3712 33.8969C45.2062 33.795 45.0316 33.7089 44.8497 33.6398C44.6461 33.5637 44.4365 33.504 44.2229 33.4613C43.9901 33.4152 43.7531 33.3921 43.5155 33.3922C42.9481 33.3874 42.3866 33.5043 41.8704 33.7346C41.3669 33.967 40.9263 34.3116 40.584 34.7408C40.205 35.2272 39.9232 35.7791 39.7532 36.3674C39.547 37.0843 39.4478 37.8265 39.4588 38.5711C39.4477 39.2918 39.5379 40.0105 39.7269 40.7072C39.8788 41.2665 40.1433 41.7905 40.505 42.2487C40.8338 42.6544 41.259 42.9756 41.7438 43.1841C42.5296 43.4975 43.3927 43.5769 44.2245 43.4124C44.4652 43.3635 44.7008 43.2935 44.9286 43.2034C45.1114 43.1314 45.2871 43.0432 45.4534 42.9398C45.5631 42.8745 45.6638 42.7956 45.7528 42.7052C45.7987 42.6532 45.8379 42.596 45.8696 42.5348C45.898 42.4782 45.9185 42.4182 45.9305 42.3564C45.9457 42.2794 45.9562 42.2015 45.9617 42.1233C45.9683 42.0344 45.9716 41.9272 45.9716 41.8018C45.9716 41.6234 45.9716 41.4804 45.9585 41.3678C45.9489 41.2776 45.9313 41.1883 45.9058 41.101Z" fill="#53358C"/>
<path d="M53.0931 42.4479L52.371 40.4982C52.2944 40.2797 52.2066 40.0651 52.1077 39.8553C52.0261 39.6786 51.9298 39.5087 51.8199 39.3473C51.7258 39.2068 51.6154 39.0773 51.4908 38.9616C51.4165 38.8946 51.3373 38.8328 51.254 38.7767C51.4584 38.6902 51.6512 38.5796 51.8281 38.4472C52.042 38.2866 52.2257 38.0908 52.371 37.8686C52.5215 37.6363 52.6326 37.3817 52.7 37.1148C52.7779 36.8121 52.8155 36.501 52.8118 36.1889C52.8174 35.8268 52.7647 35.4661 52.6556 35.12C52.5596 34.8219 52.4048 34.5451 52.1999 34.3051C51.9977 34.0729 51.7499 33.8827 51.4711 33.7458C51.1691 33.5985 50.8456 33.4976 50.512 33.4468C50.3936 33.4323 50.257 33.4179 50.109 33.4082C49.9609 33.3986 49.78 33.3922 49.5464 33.3922H47.3304C47.251 33.391 47.1722 33.4058 47.0989 33.4357C47.0256 33.4655 46.9594 33.5098 46.9044 33.5657C46.7755 33.7169 46.7123 33.9113 46.7284 34.1074V43.0941C46.7269 43.1584 46.7452 43.2217 46.781 43.2757C46.824 43.3369 46.8864 43.3827 46.9587 43.4059C47.0515 43.4392 47.1482 43.4613 47.2465 43.4718C47.5351 43.5039 47.8265 43.5039 48.1151 43.4718C48.2124 43.461 48.3079 43.4388 48.3997 43.4059C48.4715 43.3819 48.5341 43.337 48.5791 43.2773C48.6177 43.2237 48.6378 43.1596 48.6366 43.0941V39.4052H49.0989C49.2552 39.4021 49.4103 39.4329 49.5529 39.4952C49.6879 39.56 49.8065 39.6534 49.9001 39.7685C50.0154 39.9116 50.1111 40.0688 50.1847 40.2362C50.2702 40.4275 50.3623 40.6493 50.4528 40.8952L51.2211 43.1005C51.238 43.1625 51.2635 43.2219 51.2967 43.2773C51.336 43.3389 51.3933 43.3876 51.4612 43.4171C51.5533 43.4524 51.6504 43.4735 51.7491 43.4798C51.8626 43.4911 52.014 43.4959 52.2015 43.4959C52.4236 43.4959 52.6013 43.4959 52.7312 43.4798C52.8389 43.4759 52.9453 43.4564 53.0471 43.4219C53.118 43.3982 53.1769 43.3487 53.2116 43.2837C53.2358 43.229 53.2476 43.1697 53.2461 43.1101C53.2434 43.0324 53.2312 42.9552 53.2099 42.8803C53.205 42.7887 53.1606 42.6424 53.0931 42.4479ZM50.8493 36.3947C50.8517 36.5829 50.8222 36.7703 50.7621 36.9492C50.7081 37.1056 50.6194 37.2483 50.5022 37.3671C50.3795 37.4876 50.2312 37.5803 50.0679 37.6387C49.8682 37.7073 49.6576 37.7405 49.446 37.7368H48.6399V35.0911H49.3407C49.493 35.0891 49.6452 35.0966 49.7964 35.1136C49.8938 35.1257 49.99 35.145 50.0843 35.1715C50.2063 35.2031 50.3208 35.258 50.421 35.3331C50.5212 35.4081 50.6053 35.5018 50.6683 35.6087C50.7959 35.8514 50.8582 36.1219 50.8493 36.3947Z" fill="#53358C"/>
<path d="M63.9539 33.9067C63.9265 33.8058 63.8796 33.7108 63.8158 33.627C63.752 33.5477 63.6688 33.4852 63.5739 33.4454C63.4692 33.4051 63.3575 33.3849 63.2449 33.3859H62.0934C61.9413 33.3836 61.7899 33.4042 61.6443 33.447C61.5098 33.4887 61.3886 33.5634 61.2922 33.664C61.1876 33.7764 61.103 33.9052 61.0422 34.0449C60.9638 34.2234 60.9005 34.4078 60.853 34.5963L59.0302 40.2686L57.2568 34.5866C57.2128 34.3963 57.15 34.2106 57.0693 34.0321C57.003 33.8887 56.9073 33.7601 56.788 33.6544C56.6708 33.5559 56.5325 33.4845 56.3833 33.4454C56.2078 33.4035 56.0276 33.3836 55.847 33.3859H54.7251C54.6237 33.3823 54.5229 33.4016 54.4304 33.4423C54.338 33.483 54.2564 33.544 54.1921 33.6206C54.0537 33.8068 53.9851 34.0338 53.9979 34.2635V43.0782C53.9968 43.1406 54.0127 43.2022 54.044 43.2566C54.0821 43.3177 54.14 43.3647 54.2085 43.39C54.2955 43.4222 54.386 43.4443 54.4783 43.4559C54.7476 43.4881 55.02 43.4881 55.2893 43.4559C55.3809 43.4438 55.4709 43.4217 55.5575 43.39C55.6296 43.3666 55.6913 43.3194 55.7319 43.2566C55.7636 43.2023 55.78 43.1407 55.7796 43.0782V35.5639L57.9889 43.0943C58.0043 43.1629 58.0384 43.2263 58.0876 43.2775C58.1411 43.3301 58.2049 43.3716 58.2751 43.3997C58.3649 43.434 58.459 43.4567 58.5548 43.4672C58.6837 43.481 58.8134 43.4875 58.943 43.4865C59.0927 43.4865 59.2227 43.4865 59.328 43.4752C59.4239 43.4698 59.5186 43.4514 59.6093 43.4206C59.6821 43.394 59.7475 43.3511 59.8001 43.2952C59.8494 43.2392 59.8844 43.1725 59.9021 43.1007L62.2052 35.5462V43.0846C62.2047 43.1483 62.223 43.2108 62.2579 43.2646C62.2975 43.3241 62.3549 43.3701 62.4224 43.3964C62.5087 43.4291 62.5987 43.4512 62.6905 43.4623C62.8241 43.48 62.9588 43.4881 63.0936 43.4865C63.2305 43.4881 63.3674 43.4801 63.5032 43.4623C63.5955 43.4508 63.686 43.4287 63.773 43.3964C63.8415 43.3711 63.8994 43.3242 63.9375 43.263C63.9686 43.2085 63.9845 43.147 63.9836 43.0846V34.27C63.99 34.1481 63.9801 34.026 63.9539 33.9067Z" fill="#53358C"/>
<path d="M12.6457 46.9985C13.338 46.9985 13.8992 46.4573 13.8992 45.7898C13.8992 45.1222 13.338 44.5811 12.6457 44.5811C11.9534 44.5811 11.3922 45.1222 11.3922 45.7898C11.3922 46.4573 11.9534 46.9985 12.6457 46.9985Z" fill="#53358C"/>
<path d="M6.25951 40.3729C6.25951 41.4627 5.48468 41.4981 5.24121 41.4981H0.635002C0.460302 41.4754 0.283402 41.5198 0.14148 41.6218C0.0889417 41.6678 0.0477378 41.7248 0.0209568 41.7886C-0.00582429 41.8523 -0.0174866 41.9211 -0.0131567 41.9899V43.054C-0.0103253 43.1693 0.036629 43.2794 0.118449 43.3626C0.176487 43.4142 0.244548 43.4539 0.318589 43.4793C0.39263 43.5047 0.471141 43.5153 0.549459 43.5105H5.34485C6.14271 43.5105 6.89451 43.5024 7.4489 43.1199C8.07568 42.6875 8.3685 41.834 8.3685 40.4228C8.3685 37.1679 6.84351 37.1679 5.22805 37.1679H4.44993C4.08637 37.1679 3.80177 36.7709 3.80177 36.2646C3.80177 35.7583 4.08966 35.3163 4.43183 35.313H6.38783C6.47213 35.3197 6.55691 35.3088 6.63659 35.2811C6.71626 35.2534 6.78903 35.2095 6.85009 35.1523C6.9367 35.0577 6.98163 34.9335 6.97512 34.8067V33.8825C6.97871 33.8153 6.96732 33.7482 6.94176 33.6858C6.9162 33.6233 6.87706 33.5671 6.82706 33.5209C6.70155 33.4244 6.54387 33.3768 6.38454 33.3874H4.44993H4.26568H4.22291C2.5219 33.3874 1.63192 34.8726 1.63192 36.3369C1.61193 37.0339 1.84112 37.7159 2.28008 38.2657C2.52016 38.5374 2.81978 38.7527 3.15668 38.8957C3.49359 39.0387 3.85914 39.1058 4.2262 39.0919H5.24779C5.48468 39.0935 6.25951 39.1417 6.25951 40.3729Z" fill="#53358C"/>
<path d="M15.4719 37.1647H14.4602C14.3993 37.1621 14.3385 37.172 14.2818 37.1939C14.2251 37.2157 14.1738 37.2491 14.1312 37.2917C14.0364 37.4068 13.9894 37.5526 13.9996 37.7C13.9996 38.3606 13.9996 39.5741 13.9996 40.193C13.9996 41.0577 13.5488 41.4965 12.6572 41.4965C11.8149 41.4965 11.3527 41.0336 11.3527 40.193V37.7193C11.3612 37.6443 11.3525 37.5685 11.327 37.4973C11.3016 37.4261 11.2601 37.3614 11.2056 37.308C11.1511 37.2546 11.085 37.2139 11.0122 37.1888C10.9394 37.1637 10.8618 37.1549 10.7851 37.1631H9.81615C9.75528 37.1606 9.69454 37.1707 9.63787 37.1925C9.5812 37.2144 9.52985 37.2476 9.48714 37.2901C9.39332 37.4051 9.34644 37.55 9.35554 37.6968V41.9867C9.35554 42.6297 9.1499 43.7339 7.77462 43.8239C7.64215 43.8146 7.511 43.8548 7.40776 43.9365C7.35039 43.9912 7.30594 44.0576 7.27753 44.1309C7.24911 44.2042 7.23742 44.2826 7.24326 44.3608V45.2721C7.22874 45.4319 7.27697 45.5911 7.37815 45.7174C7.42052 45.7605 7.47173 45.7944 7.52843 45.8168C7.58513 45.8393 7.64604 45.8497 7.70717 45.8476H7.90458C8.55059 45.8483 9.1876 45.6996 9.76351 45.4136C10.1359 45.2266 10.4554 44.9528 10.6936 44.6164C10.9317 44.2799 11.0813 43.8912 11.1289 43.4848H12.5256C13.6015 43.4848 14.4997 43.1103 15.1182 42.4014C15.6874 41.7585 16 40.8263 16 39.7976V37.7193C16.0049 37.5673 15.9508 37.4192 15.8486 37.3046C15.7991 37.2572 15.7401 37.2203 15.6752 37.1962C15.6104 37.1722 15.5412 37.1614 15.4719 37.1647Z" fill="#53358C"/>
<path d="M38.4421 39.611V38.4633C38.4421 38.0712 38.4421 37.6779 38.4421 37.2836C38.4421 36.1375 38.4421 34.9513 38.4503 33.786C38.4578 33.731 38.4536 33.6751 38.4381 33.6217C38.4225 33.5683 38.3959 33.5187 38.3599 33.4758C38.2665 33.4047 38.1484 33.3724 38.0308 33.3858H36.8398C36.7327 33.3745 36.6253 33.4045 36.5404 33.4693C36.507 33.5107 36.4823 33.5582 36.4679 33.6089C36.4535 33.6597 36.4496 33.7128 36.4565 33.7651C36.4565 35.051 36.4565 36.3593 36.4565 37.6227V39.9196C36.4565 40.9869 36.4565 42.0911 36.4565 43.1761C36.4451 43.2755 36.4741 43.3753 36.5371 43.4541C36.626 43.5195 36.7378 43.5478 36.848 43.5329H38.067C38.1766 43.5455 38.2868 43.5161 38.3747 43.4509C38.4068 43.4117 38.4305 43.3666 38.4443 43.3183C38.4582 43.27 38.4619 43.2194 38.4553 43.1696C38.4405 41.985 38.4405 40.7779 38.4421 39.611Z" fill="#53358C"/>
<path d="M18.7144 33.463C18.6208 33.3925 18.5028 33.3602 18.3854 33.373H17.196C17.1426 33.3608 17.0869 33.3621 17.0342 33.3769C16.9815 33.3917 16.9335 33.4194 16.8949 33.4575C16.8563 33.4955 16.8283 33.5426 16.8136 33.5942C16.7989 33.6459 16.798 33.7003 16.811 33.7524C16.8193 35.0382 16.811 36.345 16.811 37.61C16.811 38.015 16.811 38.4136 16.811 38.8219C16.811 39.1852 16.811 39.5484 16.811 39.9117C16.811 40.9774 16.811 42.08 16.811 43.1649C16.805 43.2142 16.8091 43.2641 16.8229 43.3118C16.8367 43.3596 16.8601 43.4041 16.8916 43.443C16.9353 43.4755 16.9851 43.4992 17.0382 43.5127C17.0913 43.5262 17.1466 43.5293 17.2009 43.5218H18.4199C18.5295 43.5346 18.6398 43.5051 18.7275 43.4398C18.7595 43.4005 18.7833 43.3554 18.7974 43.3072C18.8115 43.2589 18.8157 43.2084 18.8098 43.1585C18.8016 41.9723 18.8016 40.7652 18.8098 39.5983V37.2676C18.8098 36.1216 18.8098 34.937 18.8098 33.7733C18.8166 33.7179 18.8116 33.6618 18.7952 33.6084C18.7788 33.5551 18.7513 33.5056 18.7144 33.463Z" fill="#53358C"/>
<path d="M23.6874 41.4708C23.6845 41.7137 23.7555 41.9519 23.8915 42.1552C24.0274 42.3585 24.2221 42.5177 24.4509 42.6127C24.6797 42.7076 24.9322 42.7339 25.1763 42.6883C25.4205 42.6427 25.6452 42.5272 25.822 42.3565C25.9988 42.1858 26.1197 41.9676 26.1692 41.7296C26.2188 41.4916 26.1949 41.2446 26.1005 41.02C26.006 40.7954 25.8454 40.6032 25.6389 40.468C25.4325 40.3327 25.1895 40.2605 24.941 40.2605C24.6105 40.2588 24.2929 40.3853 24.0579 40.6122C23.8228 40.8392 23.6896 41.148 23.6874 41.4708Z" fill="#53358C"/>
<path d="M34.7193 38.0103C34.0758 37.4558 33.2445 37.1545 32.3866 37.1648C31.5215 37.158 30.6891 37.4869 30.0721 38.0795C29.4552 38.672 29.1043 39.4796 29.0964 40.3248C29.0964 41.8695 30.2283 43.3032 32.2813 43.3032C32.9805 43.3032 33.3983 43.1152 33.701 42.8419C33.701 43.6456 32.8308 43.8835 32.4919 43.8835H29.6196C29.5388 43.8769 29.4575 43.8887 29.3821 43.918C29.3068 43.9473 29.2394 43.9932 29.1853 44.0523C29.1419 44.1152 29.1121 44.1862 29.0976 44.2608C29.0832 44.3354 29.0845 44.4121 29.1014 44.4862V45.3783C29.0965 45.448 29.1075 45.518 29.1337 45.583C29.1598 45.6481 29.2005 45.7066 29.2527 45.7544C29.3431 45.8238 29.4554 45.8602 29.5702 45.8573H32.4985C34.0991 45.8573 35.7179 45.0279 35.7179 43.4463V40.2396C35.7225 39.8201 35.6359 39.4045 35.4637 39.0201C35.2916 38.6358 35.0378 38.2916 34.7193 38.0103ZM32.2879 41.3857C32.078 41.3831 31.8735 41.32 31.7002 41.2042C31.5269 41.0884 31.3925 40.9251 31.314 40.7349C31.2354 40.5446 31.2162 40.336 31.2588 40.1351C31.3013 39.9342 31.4037 39.7501 31.5531 39.606C31.7024 39.4618 31.8921 39.364 32.0982 39.3249C32.3043 39.2858 32.5176 39.3072 32.7114 39.3862C32.9051 39.4653 33.0705 39.5986 33.1869 39.7693C33.3033 39.9401 33.3654 40.1406 33.3654 40.3457C33.365 40.4835 33.3368 40.6198 33.2824 40.7469C33.228 40.874 33.1484 40.9894 33.0484 41.0864C32.9483 41.1834 32.8296 41.2602 32.6991 41.3124C32.5686 41.3646 32.4289 41.3911 32.2879 41.3905V41.3857Z" fill="#53358C"/>
<path d="M27.2885 38.751C27.7228 38.4472 28.2394 37.7995 28.2394 36.4413C28.2394 33.8454 26.8789 33.4452 26.4462 33.3873L26.3771 33.3793L26.2538 33.3712H23.5328C23.4222 33.3691 23.3123 33.3891 23.2099 33.43C23.1075 33.4709 23.0147 33.5319 22.9373 33.6091L21.7742 34.842C21.738 34.8757 21.5933 35.0204 21.6475 35.1554C21.7018 35.2904 21.9568 35.3049 22.0374 35.3049H23.5706C23.6105 35.31 23.6509 35.31 23.6907 35.3049H24.7107C25.247 35.3049 26.2472 35.3049 26.2472 36.3336C26.2472 37.0585 25.525 37.1581 24.7436 37.1581H23.9523C23.8651 37.1581 21.8318 37.1581 20.473 38.4585C19.7047 39.1946 19.3214 40.1992 19.3214 41.4465C19.3214 43.6775 20.5585 44.7576 21.5966 45.272C22.3032 45.6163 23.0749 45.8149 23.8635 45.8555H27.5797C28.2278 45.8555 28.2525 45.3106 28.2525 45.3025V44.4844C28.2509 44.3237 28.1855 44.1699 28.0701 44.0554C27.9547 43.9409 27.7984 43.8745 27.634 43.8704H23.9572C22.276 43.8479 21.3136 42.996 21.3136 41.4449C21.3136 39.8231 22.7366 39.0837 23.9556 39.0837H26.3294C26.6751 39.0648 27.008 38.9493 27.2885 38.751Z" fill="#53358C"/>
<path d="M32.8322 18.9592L32.4992 19.1157L32.1662 18.9592C27.6416 16.8357 23.6598 16.4584 20 17.8024V27.2044C20 27.2044 20 28 20.8585 28H44.1352C44.1352 28 45 28 45 27.2044V17.8024C41.2944 16.4394 37.4231 16.805 32.8322 18.9592Z" fill="#53358C"/>
<path d="M44.1352 11.5855H38.1381C38.1381 9.26987 35.613 7 32.5024 7C29.346 7 26.8398 9.26987 26.8398 11.5855H20.8538C20 11.5855 20 12.4138 20 12.4138V16.7003C23.8255 15.4083 27.9272 15.8354 32.4992 18C37.1343 15.8018 41.1366 15.3823 45 16.6988V12.4123C45 11.5855 44.1352 11.5855 44.1352 11.5855ZM28.4007 11.5855C28.4007 10.0356 30.2329 8.48579 32.5039 8.48579C34.6376 8.48579 36.6072 10.0356 36.6072 11.5855H28.4007Z" fill="#53358C"/>
</g>
<defs>
<clipPath id="clip0_5693_15808">
<rect width="64" height="41" fill="white" transform="translate(0 6)"/>
</clipPath>
</defs>
</svg>
