<svg width="50" height="56" viewBox="0 0 50 56" fill="none" xmlns="http://www.w3.org/2000/svg">
<path d="M36.8037 29.5849V30.8592H40.3014C42.4556 30.8592 43.8932 30.8768 44.041 30.9032C44.8158 31.0438 45.4517 31.6986 45.5995 32.5028C45.6264 32.6478 45.6488 33.2806 45.6488 33.9221V35.0779H46.8266H48L47.9687 33.3113C47.9507 32.3358 47.9149 31.3778 47.888 31.1756C47.7179 29.8749 46.7729 28.8818 45.2815 28.4335L44.9546 28.3368L40.8792 28.3193L36.8037 28.3061V29.5849Z" fill="#E51420"/>
<path d="M16.4042 38.4396V44.3062H17.7254H19.086L19.0465 38.4396V32.5731H17.7254H16.4042V38.4396Z" fill="#E51420"/>
<path d="M21.0619 34.6912C21.0619 36.9499 21.0887 37.341 21.2858 37.9342C21.6933 39.1471 22.7368 39.9601 24.376 40.338C24.7342 40.4171 25.0253 40.4479 25.621 40.4698L26.3913 40.4962V39.4415V38.3869L25.9569 38.3605C24.6536 38.2858 23.7624 37.6706 23.4041 36.5983C23.3011 36.2819 23.2877 36.1677 23.2832 35.614C23.2787 35.0998 23.2922 34.9812 23.3459 34.946C23.4176 34.8977 26.5167 34.8845 26.6331 34.9285C26.6958 34.9548 26.7048 35.2185 26.7048 37.4684C26.7048 38.9538 26.6869 40.0919 26.66 40.2633C26.5615 40.8785 26.1181 41.4454 25.5269 41.7178C25.1149 41.9068 24.6984 41.9376 22.8622 41.9244L21.2858 41.9112V43.0669V44.2227L23.5609 44.1963C24.8104 44.1831 25.9748 44.1611 26.1495 44.148C26.5749 44.1216 27.0586 43.9854 27.4348 43.792C28.2544 43.3701 29.0291 42.2979 29.2083 41.3443C29.2396 41.1641 29.2575 39.7096 29.2575 36.8269V32.5731H25.1597H21.0619V34.6912Z" fill="#E51420"/>
<path d="M31.2728 36.4182V40.2589L32.576 40.2721C33.2926 40.2809 33.8882 40.2765 33.8972 40.2677C33.9062 40.2589 33.9151 38.5231 33.9151 36.4094V32.573H32.594H31.2728V36.4182Z" fill="#E51420"/>
<path d="M36.8262 36.0974C36.8217 38.0397 36.8038 39.8282 36.7859 40.0787C36.7366 40.6588 36.5888 40.9708 36.2037 41.3355C35.617 41.8804 35.2632 41.942 32.9389 41.9244L31.4072 41.9112V43.0669V44.2183L33.8167 44.1919C35.1378 44.1787 36.3649 44.148 36.5351 44.1216C37.7891 43.937 38.7699 43.045 39.2491 41.6475L39.3566 41.3399L39.37 36.9543L39.3834 32.5731H38.1026H36.8262V36.0974Z" fill="#E51420"/>
<path d="M41.3046 38.4396V44.3062H42.6482H43.9917V38.4396V32.5731H42.6482H41.3046V38.4396Z" fill="#E51420"/>
<path d="M8.31151 32.9906C8.18611 33.0741 8.14133 33.2894 8.20851 33.4564C8.24881 33.5531 8.30703 33.5926 8.45035 33.6278C9.59237 33.9134 10.6269 34.7 11.0748 35.6316C11.2897 36.0799 11.3569 36.427 11.3569 37.0774V37.6487L11.4823 37.385C11.8585 36.5984 12.0108 35.7327 11.9167 34.8934C11.8719 34.4583 11.6435 33.7596 11.5136 33.641C11.2405 33.3949 10.3671 33.0873 9.67746 32.9906C9.05942 32.9027 8.43691 32.9027 8.31151 32.9906Z" fill="#E51420"/>
<path d="M5.71843 33.6981C5.27058 33.931 4.64358 34.4583 4.3077 34.8846L4.11064 35.1351L4.12408 35.5086C4.13303 35.8953 4.20917 36.304 4.35248 36.7918L4.43309 37.0774L4.46444 36.8577C4.63463 35.6844 5.08248 34.9417 6.17076 34.0365C6.31407 33.9134 6.33198 33.8783 6.30511 33.7728C6.25137 33.5487 6.05431 33.5223 5.71843 33.6981Z" fill="#E51420"/>
<path d="M12.275 34.2517C12.3243 34.4758 12.3467 34.8406 12.3467 35.4514C12.3512 36.4445 12.2885 36.8093 12.0018 37.5036C11.4779 38.778 10.2731 39.8414 8.80867 40.316L8.49965 40.4171L8.83554 40.4522C9.38192 40.5138 10.2328 40.461 10.721 40.338C12.2302 39.9557 13.3991 39.0241 14.2321 37.5256L14.4023 37.2224L14.2814 36.8664C14.0216 36.0974 13.6007 35.3547 13.0588 34.7175C12.7901 34.3967 12.3019 33.9353 12.2392 33.9353C12.2213 33.9353 12.2392 34.0803 12.275 34.2517Z" fill="#E51420"/>
<path d="M7.46063 35.535C6.99935 35.6844 6.66794 35.9656 6.47088 36.3875C6.12604 37.1302 6.46193 38.0398 7.21432 38.4045C7.43824 38.5144 7.51886 38.5276 7.89505 38.5276C8.27124 38.5276 8.34738 38.5144 8.56683 38.4045C8.90271 38.2332 9.16247 37.9739 9.31474 37.6531C9.42222 37.4246 9.44014 37.3323 9.44014 37.0115C9.43566 36.7039 9.41774 36.594 9.31922 36.3919C9.06394 35.847 8.56683 35.5174 7.97118 35.491C7.77861 35.4779 7.5726 35.4998 7.46063 35.535Z" fill="#E51420"/>
<path d="M3.39859 36.1852C3.10301 37.0025 3 37.6353 3 38.5713C3 39.7139 3.18362 40.5224 3.64043 41.4277C4.48239 43.0844 5.97373 43.9721 8.17268 44.1259C9.15795 44.1962 10.1611 44.0907 10.9404 43.8402C11.7062 43.5898 12.3198 43.2118 12.8706 42.6537C13.8425 41.6694 14.4023 40.2456 14.5008 38.5054L14.5322 38.0001L14.3127 38.378C13.5424 39.7007 12.378 40.5444 10.8956 40.8608C10.3313 40.9839 8.94298 40.9707 8.32942 40.8432C6.37232 40.4214 4.97502 39.3579 4.15993 37.6661C3.92705 37.1871 3.71208 36.5631 3.63147 36.1544C3.6046 35.9962 3.56429 35.8688 3.54638 35.8688C3.52846 35.8688 3.46129 36.0138 3.39859 36.1852Z" fill="#E51420"/>
<path d="M22.8299 11.0998C22.645 11.2263 22.579 11.5525 22.678 11.8054C22.7375 11.9519 22.8233 12.0118 23.0345 12.065C24.718 12.4977 26.2431 13.6892 26.9033 15.1004C27.2202 15.7794 27.3192 16.3052 27.3192 17.2904V18.1558L27.5041 17.7564C28.0586 16.5648 28.2831 15.2535 28.1444 13.9821C28.0784 13.3231 27.7417 12.2647 27.5503 12.085C27.1476 11.7122 25.8602 11.2463 24.8435 11.0998C23.9324 10.9667 23.0147 10.9667 22.8299 11.0998Z" fill="#E51420"/>
<path d="M19.0074 12.1716C18.3472 12.5244 17.4229 13.3232 16.9278 13.9689L16.6373 14.3483L16.6571 14.9141C16.6703 15.4999 16.7825 16.119 16.9938 16.8579L17.1126 17.2905L17.1588 16.9577C17.4097 15.1804 18.0699 14.0554 19.6742 12.6842C19.8854 12.4978 19.9118 12.4446 19.8722 12.2848C19.793 11.9453 19.5025 11.9054 19.0074 12.1716Z" fill="#E51420"/>
<path d="M28.6726 13.0105C28.7452 13.35 28.7782 13.9024 28.7782 14.8277C28.7848 16.3321 28.6924 16.8846 28.2699 17.9363C27.4975 19.8667 25.7215 21.4776 23.5627 22.1965L23.1072 22.3496L23.6023 22.4028C24.4078 22.496 25.6621 22.4162 26.3817 22.2298C28.6066 21.6507 30.3297 20.2395 31.5577 17.9696L31.8085 17.5103L31.6303 16.9711C31.2474 15.8062 30.6268 14.6813 29.828 13.7161C29.4318 13.2301 28.7122 12.5312 28.6198 12.5312C28.5934 12.5312 28.6198 12.7509 28.6726 13.0105Z" fill="#E51420"/>
<path d="M21.5755 14.954C20.8955 15.1803 20.407 15.6063 20.1165 16.2453C19.6081 17.3703 20.1033 18.7482 21.2124 19.3007C21.5425 19.4671 21.6613 19.4871 22.2159 19.4871C22.7705 19.4871 22.8827 19.4671 23.2062 19.3007C23.7013 19.0411 24.0843 18.6483 24.3087 18.1624C24.4672 17.8163 24.4936 17.6765 24.4936 17.1906C24.487 16.7246 24.4606 16.5582 24.3153 16.252C23.939 15.4266 23.2062 14.9273 22.3281 14.8874C22.0443 14.8674 21.7406 14.9007 21.5755 14.954Z" fill="#E51420"/>
<path d="M15.5876 15.9393C15.1518 17.1774 15 18.136 15 19.5538C15 21.2845 15.2707 22.5093 15.9441 23.8805C17.1852 26.3901 19.3837 27.7347 22.6252 27.9677C24.0777 28.0742 25.5565 27.9144 26.7052 27.535C27.8342 27.1556 28.7386 26.5831 29.5507 25.7377C30.9833 24.2467 31.8085 22.0899 31.9538 19.4539L32 18.6884L31.6765 19.2609C30.541 21.2645 28.8245 22.5426 26.6392 23.0219C25.8074 23.2082 23.7608 23.1883 22.8563 22.9952C19.9713 22.3562 17.9115 20.7453 16.7099 18.1826C16.3666 17.457 16.0497 16.5118 15.9309 15.8927C15.8913 15.6531 15.8318 15.46 15.8054 15.46C15.779 15.46 15.68 15.6797 15.5876 15.9393Z" fill="#E51420"/>
</svg>
